<mxfile host="app.diagrams.net" modified="2023-11-28T20:03:57.465Z" agent="Mozilla/5.0 (Windows NT 10.0; Win64; x64) AppleWebKit/537.36 (KHTML, like Gecko) Chrome/119.0.0.0 Safari/537.36" etag="Dt_Q6634jZgysmBE95n7" version="22.1.4" type="device">
  <diagram name="Страница — 1" id="xWtcJD3A_HicHJc8SyKI">
    <mxGraphModel dx="989" dy="545" grid="1" gridSize="10" guides="1" tooltips="1" connect="1" arrows="1" fold="1" page="1" pageScale="1" pageWidth="827" pageHeight="1169" math="0" shadow="0">
      <root>
        <mxCell id="0" />
        <mxCell id="1" parent="0" />
        <mxCell id="Zi4-sCSXu3aYQf0qUOwc-4" value="" style="edgeStyle=orthogonalEdgeStyle;rounded=0;orthogonalLoop=1;jettySize=auto;html=1;" edge="1" parent="1" source="Zi4-sCSXu3aYQf0qUOwc-1">
          <mxGeometry relative="1" as="geometry">
            <mxPoint x="414" y="150" as="targetPoint" />
          </mxGeometry>
        </mxCell>
        <mxCell id="Zi4-sCSXu3aYQf0qUOwc-1" value="" style="shape=waypoint;sketch=0;fillStyle=solid;size=6;pointerEvents=1;points=[];fillColor=none;resizable=0;rotatable=0;perimeter=centerPerimeter;snapToPoint=1;strokeWidth=8;" vertex="1" parent="1">
          <mxGeometry x="404" y="100" width="20" height="20" as="geometry" />
        </mxCell>
        <mxCell id="Zi4-sCSXu3aYQf0qUOwc-21" style="edgeStyle=orthogonalEdgeStyle;rounded=0;orthogonalLoop=1;jettySize=auto;html=1;" edge="1" parent="1" source="Zi4-sCSXu3aYQf0qUOwc-8">
          <mxGeometry relative="1" as="geometry">
            <mxPoint x="414" y="230" as="targetPoint" />
            <Array as="points">
              <mxPoint x="414" y="205" />
              <mxPoint x="414" y="230" />
            </Array>
          </mxGeometry>
        </mxCell>
        <mxCell id="Zi4-sCSXu3aYQf0qUOwc-8" value="" style="rhombus;whiteSpace=wrap;html=1;" vertex="1" parent="1">
          <mxGeometry x="397" y="150" width="33" height="30" as="geometry" />
        </mxCell>
        <mxCell id="Zi4-sCSXu3aYQf0qUOwc-27" style="edgeStyle=orthogonalEdgeStyle;rounded=0;orthogonalLoop=1;jettySize=auto;html=1;exitX=0.5;exitY=1;exitDx=0;exitDy=0;" edge="1" parent="1" source="Zi4-sCSXu3aYQf0qUOwc-18">
          <mxGeometry relative="1" as="geometry">
            <mxPoint x="315" y="550" as="targetPoint" />
            <Array as="points">
              <mxPoint x="235" y="460" />
              <mxPoint x="315" y="460" />
            </Array>
          </mxGeometry>
        </mxCell>
        <mxCell id="Zi4-sCSXu3aYQf0qUOwc-18" value="&lt;font style=&quot;font-size: 9px;&quot;&gt;print(i)&lt;br&gt;&lt;/font&gt;" style="ellipse;whiteSpace=wrap;html=1;strokeWidth=1;" vertex="1" parent="1">
          <mxGeometry x="210" y="370" width="50" height="30" as="geometry" />
        </mxCell>
        <mxCell id="Zi4-sCSXu3aYQf0qUOwc-55" value="" style="edgeStyle=orthogonalEdgeStyle;rounded=0;orthogonalLoop=1;jettySize=auto;html=1;" edge="1" parent="1" source="Zi4-sCSXu3aYQf0qUOwc-19" target="Zi4-sCSXu3aYQf0qUOwc-52">
          <mxGeometry relative="1" as="geometry" />
        </mxCell>
        <mxCell id="Zi4-sCSXu3aYQf0qUOwc-19" value="i = str(i)" style="ellipse;whiteSpace=wrap;html=1;strokeWidth=1;" vertex="1" parent="1">
          <mxGeometry x="371" y="230" width="86" height="40" as="geometry" />
        </mxCell>
        <mxCell id="Zi4-sCSXu3aYQf0qUOwc-30" style="edgeStyle=orthogonalEdgeStyle;rounded=0;orthogonalLoop=1;jettySize=auto;html=1;exitX=0.5;exitY=1;exitDx=0;exitDy=0;" edge="1" parent="1" source="Zi4-sCSXu3aYQf0qUOwc-20">
          <mxGeometry relative="1" as="geometry">
            <mxPoint x="510" y="550" as="targetPoint" />
            <Array as="points">
              <mxPoint x="510" y="550" />
            </Array>
          </mxGeometry>
        </mxCell>
        <mxCell id="Zi4-sCSXu3aYQf0qUOwc-20" value="&lt;font style=&quot;font-size: 10px;&quot;&gt;continue&lt;/font&gt;" style="ellipse;whiteSpace=wrap;html=1;strokeWidth=1;" vertex="1" parent="1">
          <mxGeometry x="530" y="370" width="130" height="30" as="geometry" />
        </mxCell>
        <mxCell id="Zi4-sCSXu3aYQf0qUOwc-32" value="" style="endArrow=none;html=1;rounded=0;" edge="1" parent="1">
          <mxGeometry width="50" height="50" relative="1" as="geometry">
            <mxPoint x="310" y="550" as="sourcePoint" />
            <mxPoint x="523" y="550" as="targetPoint" />
            <Array as="points" />
          </mxGeometry>
        </mxCell>
        <mxCell id="Zi4-sCSXu3aYQf0qUOwc-35" value="" style="endArrow=classic;html=1;rounded=0;" edge="1" parent="1">
          <mxGeometry width="50" height="50" relative="1" as="geometry">
            <mxPoint x="413" y="550" as="sourcePoint" />
            <mxPoint x="413" y="590" as="targetPoint" />
            <Array as="points">
              <mxPoint x="413" y="550" />
            </Array>
          </mxGeometry>
        </mxCell>
        <mxCell id="Zi4-sCSXu3aYQf0qUOwc-38" value="" style="shape=waypoint;sketch=0;fillStyle=solid;size=6;pointerEvents=1;points=[];fillColor=none;resizable=0;rotatable=0;perimeter=centerPerimeter;snapToPoint=1;strokeWidth=8;" vertex="1" parent="1">
          <mxGeometry x="404" y="590" width="20" height="20" as="geometry" />
        </mxCell>
        <mxCell id="Zi4-sCSXu3aYQf0qUOwc-42" value="[100 &amp;lt;= i &amp;lt;= 1000]" style="text;html=1;strokeColor=none;fillColor=none;align=center;verticalAlign=middle;whiteSpace=wrap;rounded=0;rotation=-90;" vertex="1" parent="1">
          <mxGeometry x="396" y="162" width="106" height="30" as="geometry" />
        </mxCell>
        <mxCell id="Zi4-sCSXu3aYQf0qUOwc-56" style="edgeStyle=orthogonalEdgeStyle;rounded=0;orthogonalLoop=1;jettySize=auto;html=1;" edge="1" parent="1" source="Zi4-sCSXu3aYQf0qUOwc-52">
          <mxGeometry relative="1" as="geometry">
            <mxPoint x="590" y="370" as="targetPoint" />
          </mxGeometry>
        </mxCell>
        <mxCell id="Zi4-sCSXu3aYQf0qUOwc-57" style="edgeStyle=orthogonalEdgeStyle;rounded=0;orthogonalLoop=1;jettySize=auto;html=1;" edge="1" parent="1" source="Zi4-sCSXu3aYQf0qUOwc-52">
          <mxGeometry relative="1" as="geometry">
            <mxPoint x="230" y="370" as="targetPoint" />
          </mxGeometry>
        </mxCell>
        <mxCell id="Zi4-sCSXu3aYQf0qUOwc-52" value="&lt;font style=&quot;font-size: 8px;&quot;&gt;sum := int(i[0]) +&amp;nbsp;int(i[1]) +&amp;nbsp;int(i[2])&lt;/font&gt;" style="ellipse;whiteSpace=wrap;html=1;strokeWidth=1;" vertex="1" parent="1">
          <mxGeometry x="352.25" y="300" width="122.5" height="50" as="geometry" />
        </mxCell>
        <mxCell id="Zi4-sCSXu3aYQf0qUOwc-58" value="else" style="text;html=1;strokeColor=none;fillColor=none;align=center;verticalAlign=middle;whiteSpace=wrap;rounded=0;rotation=0;" vertex="1" parent="1">
          <mxGeometry x="474.75" y="290" width="106" height="30" as="geometry" />
        </mxCell>
        <mxCell id="Zi4-sCSXu3aYQf0qUOwc-59" value="sum % 7 = 0 and int(i) % 7 = 0" style="text;html=1;strokeColor=none;fillColor=none;align=center;verticalAlign=middle;whiteSpace=wrap;rounded=0;rotation=0;" vertex="1" parent="1">
          <mxGeometry x="220" y="290" width="106" height="30" as="geometry" />
        </mxCell>
      </root>
    </mxGraphModel>
  </diagram>
</mxfile>
